<?xml version="1.0" encoding="UTF-8" standalone="yes"?>
<svg width="200" height="200" viewBox="0 0 200 200" fill="none" version="1.2" baseProfile="tiny-ps" xmlns="http://www.w3.org/2000/svg">
  <title>ERL</title>
  <rect width="200" height="200" fill="white"/>
  <g>
    <path d="M101.834 80.6798C100.57 80.2386 99.7472 80.0252 98.6724 80.0252C98.5368 80.0252 95.6319 80.0785 95.6125 80.2871C95.5302 80.995 95.506 82.1297 95.4866 82.9734C95.4673 83.7832 95.5932 90.8869 95.5932 90.8869C95.5932 91.3233 95.5932 91.7646 95.5932 92.201C95.598 92.9962 95.9079 93.3551 96.6631 93.4375C97.3313 93.5102 98.043 93.5442 98.8563 93.549C100.58 93.549 101.969 92.6326 102.991 91.8325C103.596 91.3573 104.037 90.6251 104.434 89.9171C104.836 89.2043 105.053 88.5643 105.087 88.0163C105.184 86.3968 105.199 84.5299 104.109 82.8764C103.543 82.0181 102.904 81.0483 101.834 80.675V80.6798ZM103.998 87.9533C103.983 88.2151 103.882 88.6758 103.485 89.3837C103.141 89.9996 102.768 90.6251 102.318 90.9742C101.437 91.6628 100.246 92.458 98.8563 92.458C98.0817 92.458 97.4039 92.4192 96.7745 92.3513C96.7406 92.3513 96.7115 92.3416 96.6873 92.3368C96.6873 92.298 96.6777 92.2495 96.6777 92.1865C96.6777 91.75 96.6777 91.3185 96.6777 90.8627C96.6341 88.4139 96.5615 83.6183 96.5711 82.9928C96.5808 82.5418 96.5954 81.829 96.6292 81.1938C97.3022 81.1453 98.2947 81.1114 98.6675 81.1114C99.6019 81.1114 100.314 81.3053 101.471 81.703C102.192 81.9551 102.7 82.7261 103.194 83.4777C104.1 84.8451 104.085 86.4356 103.993 87.9484L103.998 87.9533Z" fill="#535660"/>
    <path d="M179.874 115.418C180.053 112.775 180.073 111.553 179.734 110.821C179.129 109.507 178.175 108.843 176.892 108.843H162.338C162.077 108.843 161.815 108.843 161.52 108.843C160.992 108.843 160.45 108.852 159.922 108.838V108.818C159.937 107.286 159.956 105.754 159.976 104.226V103.873C159.995 102.723 160.009 101.579 160.024 100.43C160.034 99.5521 160.038 98.6114 160.024 97.6658C160.005 96.8318 160.009 93.4472 160.024 92.5841C160.038 91.8082 160.034 91.0324 160.029 90.2566V89.2771V66.8505C160.029 65.7789 160.019 64.3145 160.014 63.1847C160.014 62.5301 160.005 61.9822 160.005 61.6912C160.005 59.7904 159.085 59.0146 156.829 59.0146C156.649 59.0146 156.364 59.0146 156.01 59.0146C155.028 59.0097 153.541 59 152.205 59.0146C151.605 59.0194 151.009 59.0437 150.38 59.0679C149.862 59.0873 149.339 59.1067 148.821 59.1164C148.119 59.1261 147.417 59.1261 146.71 59.1213H145.766H144.304C143.292 59.1213 142.275 59.1213 141.268 59.1164C140.677 59.1116 140.087 59.0922 139.496 59.0679C138.794 59.0437 138.092 59.0194 137.337 59.0194C137.08 59.0291 136.804 59.0291 136.533 59.0291C134.185 59.0291 132.892 59.0291 132.873 60.9396L132.839 61.7058C132.805 62.3458 132.771 63.0732 132.766 63.7957C132.761 65.4492 132.761 67.0978 132.761 68.7513V69.0568C132.761 70.4921 132.761 71.9226 132.761 73.3579C132.761 73.8864 132.761 79.2591 132.761 82.503V84.8548C132.761 85.3882 132.737 85.9555 132.713 86.4695C132.689 87.0174 132.665 87.5799 132.665 88.1521C132.66 93.8497 132.66 99.5472 132.66 105.245V119.695C132.66 120.907 132.66 122.119 132.66 123.327C132.66 123.676 132.636 124.02 132.616 124.398C132.602 124.636 132.587 124.873 132.577 125.116C132.577 125.237 132.573 125.358 132.573 125.48C132.51 125.387 132.452 125.295 132.389 125.203C132.171 124.873 131.953 124.544 131.745 124.204C131.556 123.894 131.377 123.579 131.183 123.239C130.965 122.856 130.747 122.473 130.515 122.095C130.341 121.814 130.152 121.547 129.958 121.275C129.765 121.004 129.566 120.718 129.411 120.451C128.908 119.578 126.85 116.102 126.288 115.263L125.983 114.812C125.615 114.264 125.233 113.701 124.894 113.139C124.613 112.673 124.352 112.203 124.085 111.728C123.63 110.918 123.161 110.079 122.614 109.269C122.067 108.455 121.863 107.684 121.999 106.913C122.047 106.622 122.289 106.118 122.807 105.56C123.054 105.298 123.301 105.036 123.553 104.779C124.599 103.693 125.678 102.573 126.535 101.22L126.821 100.774C127.358 99.9351 127.915 99.072 128.298 98.0877C128.98 96.3129 129.489 94.5334 129.934 92.8653C130.384 91.1876 130.588 89.8735 130.597 88.6079C130.602 87.5799 130.568 86.4647 130.491 85.1118C130.384 83.3322 130.084 81.6011 129.595 79.967C129.295 78.9536 128.956 77.9789 128.593 77.0722L128.448 76.7134C128.041 75.6902 127.62 74.638 127.048 73.6343C126.559 72.776 125.911 72.0244 125.339 71.3601L124.981 70.9382C124.279 70.1139 123.553 69.2653 122.71 68.504C121.781 67.6652 120.793 66.9136 119.835 66.1862L119.418 65.8662C118.169 64.9109 114.969 62.9907 114.572 62.821C113.575 62.3992 112.5 61.9482 111.415 61.5312C110.737 61.2694 110.06 61.056 109.401 60.8911C108.81 60.7408 108.22 60.6244 107.634 60.5032C107.353 60.445 107.072 60.3868 106.792 60.3287C106.627 60.2947 106.462 60.2559 106.293 60.2123C105.973 60.1347 105.639 60.0571 105.286 59.9989C104.705 59.9019 101.752 59.4801 100.759 59.4461C100.502 59.4364 99.9312 59.4073 99.2727 59.3734L99.05 59.3637C97.9316 59.3055 96.7745 59.2425 96.2952 59.2328C94.9396 59.2085 93.5549 59.2134 92.33 59.2182H83.2425C82.2935 59.2182 80.5797 59.2473 78.9239 59.2764H78.8367C76.7258 59.3104 74.1017 59.354 73.6611 59.3249C72.8865 59.2716 72.0876 59.5771 71.4631 60.1541C70.8046 60.7602 70.4415 61.5797 70.4415 62.4477C70.4319 66.2687 70.4319 70.0945 70.4367 73.9155V78.202C70.4367 78.8906 70.4367 79.584 70.4367 80.2822C70.4319 81.8484 70.427 83.468 70.4512 85.0633C70.4706 86.3968 70.5238 87.7496 70.5674 89.0589V89.1268C70.6013 90.0044 70.6352 90.8821 70.6594 91.7646C70.6981 93.2969 70.6788 97.1761 70.6691 99.0381V99.9545C70.6594 106.098 70.6594 112.237 70.6594 118.376V124.398C70.6594 124.461 70.6594 124.529 70.6642 124.612C70.6642 124.636 70.6642 124.66 70.6642 124.684C70.4222 125.945 70.5045 127.23 70.9112 128.714C71.2162 129.819 72.3975 130.779 73.4917 130.809C75.041 130.852 76.5902 130.886 78.1734 130.915C78.4542 130.915 81.7658 130.886 84.9661 130.857L86.4911 130.843C88.3696 130.828 89.8705 130.813 90.0351 130.813C90.3885 130.813 90.7371 130.813 91.0857 130.823C91.8216 130.833 92.6544 130.847 93.4677 130.794C95.2833 130.678 96.852 128.981 96.8278 127.167C96.7987 124.699 96.8036 122.207 96.8084 119.797V119.326C96.8084 119.093 96.8084 118.866 96.8084 118.633C97.2199 119.108 97.6411 119.598 98.0042 120.092C98.7983 121.174 99.5535 122.313 100.289 123.414L100.406 123.588C100.706 124.044 100.996 124.505 101.306 125C101.553 125.392 101.8 125.79 102.052 126.178C102.197 126.401 102.342 126.624 102.487 126.857C102.976 127.618 103.48 128.408 104.056 129.155C104.811 130.139 106.012 130.687 107.431 130.697C108.622 130.707 109.813 130.702 110.999 130.697H147.746C148.535 130.697 149.324 130.697 150.118 130.683C151.028 130.668 151.943 130.653 152.854 130.634H153.091C153.807 130.615 154.519 130.605 155.245 130.59C155.768 130.581 156.364 130.571 156.935 130.59C157.41 130.605 159.579 130.6 161.946 130.6H163.713C164.585 130.6 165.471 130.619 166.332 130.644C167.146 130.663 167.964 130.683 168.777 130.687C169.349 130.687 170.525 130.687 171.576 130.687H173.561C174.079 130.687 176.984 130.61 177.976 130.566C178.736 130.532 179.627 129.844 179.68 128.966C179.753 127.87 179.792 126.687 179.806 125.334C179.806 124.936 179.806 123.312 179.806 122.037V119.239C179.802 118.099 179.797 116.81 179.806 116.533C179.806 116.281 179.84 115.879 179.869 115.408L179.874 115.418ZM178.785 115.345C178.751 115.84 178.722 116.262 178.717 116.523C178.712 116.805 178.717 118.104 178.717 119.253V121.998C178.722 123.278 178.722 124.932 178.717 125.334C178.703 126.658 178.664 127.826 178.591 128.903C178.572 129.165 178.18 129.475 177.928 129.485C176.964 129.528 174.064 129.601 173.561 129.601H172.733C171.566 129.601 169.581 129.601 168.782 129.601C167.974 129.601 167.17 129.577 166.362 129.558C165.495 129.538 164.594 129.514 163.713 129.514H161.946C159.942 129.519 157.448 129.524 156.969 129.509C156.369 129.49 155.759 129.499 155.216 129.509C154.422 129.524 153.628 129.538 152.834 129.553C151.924 129.572 151.014 129.587 150.099 129.601C149.315 129.611 148.53 129.616 147.746 129.616H110.999C109.813 129.616 108.627 129.621 107.436 129.616C106.341 129.611 105.47 129.223 104.913 128.5C104.366 127.788 103.872 127.017 103.393 126.275C103.248 126.047 103.102 125.819 102.957 125.596C102.705 125.213 102.463 124.825 102.221 124.432C101.921 123.952 101.616 123.467 101.301 122.992L101.185 122.817C100.444 121.702 99.6746 120.548 98.8757 119.452C98.4739 118.899 98.0139 118.371 97.5685 117.862C97.3797 117.648 97.1957 117.43 97.0117 117.212L96.8713 117.042C96.7019 116.834 96.5373 116.64 96.3485 116.47C96.2129 116.349 96.0289 116.276 95.9611 116.291C95.9611 116.291 95.8643 116.315 95.7094 116.635C95.69 116.674 95.6997 116.761 95.7094 116.834C95.7094 116.882 95.7191 116.936 95.7191 116.984C95.7191 117.925 95.7191 118.861 95.7191 119.801C95.7142 122.221 95.7094 124.728 95.7384 127.186C95.7529 128.428 94.6394 129.63 93.3951 129.713C92.6302 129.761 91.8507 129.752 91.0954 129.742C90.742 129.737 90.3837 129.732 90.0254 129.732C89.8124 129.732 87.4885 129.752 84.9467 129.776C81.7513 129.805 78.4494 129.834 78.1637 129.834H78.1444C76.5999 129.805 75.0555 129.771 73.511 129.727C72.8962 129.708 72.1215 129.068 71.9472 128.433C71.5793 127.099 71.5067 125.964 71.7245 124.859C71.7439 124.772 71.7391 124.675 71.7342 124.568C71.7342 124.515 71.7294 124.461 71.7294 124.408V119.021C71.7294 112.669 71.7294 106.316 71.7294 99.9642V99.0526C71.7439 97.1858 71.7633 93.2969 71.7197 91.7452C71.6955 90.8384 71.6616 89.9365 71.6277 89.0298C71.5793 87.7254 71.5309 86.3822 71.5115 85.0536C71.4873 83.4631 71.4921 81.8484 71.497 80.2871C71.497 79.5937 71.5018 78.9003 71.5018 78.2117V74.1676C71.5018 70.2642 71.5018 66.3608 71.5067 62.4574C71.5067 61.89 71.7487 61.3615 72.1796 60.959C72.5815 60.5856 73.0995 60.3868 73.5691 60.4159C74.0485 60.4499 76.4789 60.4111 78.8319 60.3723C80.5216 60.3432 82.2645 60.319 83.2231 60.319H90.7226C91.2552 60.319 91.7829 60.319 92.3155 60.319C93.6082 60.319 94.9444 60.3093 96.2565 60.3335C96.7261 60.3432 97.9461 60.4062 99.021 60.4644C99.7569 60.5032 100.415 60.542 100.701 60.5517C101.587 60.5808 104.472 60.9881 105.087 61.0899C105.402 61.1433 105.722 61.216 106.027 61.2888C106.201 61.3275 106.37 61.3712 106.545 61.41C106.83 61.473 107.116 61.5312 107.397 61.5894C107.963 61.7058 108.544 61.8221 109.116 61.9676C109.73 62.1228 110.369 62.3264 111.009 62.5689C112.079 62.9762 113.139 63.4223 114.131 63.8442C114.383 63.9508 117.501 65.8032 118.745 66.7536L119.166 67.0736C120.106 67.7864 121.079 68.5283 121.97 69.3332C122.759 70.046 123.466 70.8703 124.144 71.6656L124.507 72.0874C125.078 72.7469 125.664 73.4306 126.1 74.1919C126.632 75.1277 127.039 76.1509 127.431 77.1352L127.576 77.494C127.93 78.3766 128.254 79.3173 128.549 80.2968C129.014 81.8484 129.3 83.4971 129.397 85.1894C129.474 86.518 129.508 87.609 129.503 88.6176C129.498 89.7862 129.305 91.013 128.879 92.5986C128.438 94.2327 127.939 95.9832 127.276 97.7095C126.937 98.592 126.409 99.4114 125.901 100.202L125.615 100.648C124.817 101.909 123.771 102.99 122.764 104.037C122.512 104.299 122.26 104.561 122.008 104.828C121.418 105.458 121.021 106.152 120.919 106.738C120.735 107.786 121.001 108.848 121.703 109.89C122.221 110.656 122.681 111.481 123.127 112.271C123.398 112.756 123.669 113.236 123.955 113.711C124.308 114.298 124.7 114.88 125.078 115.442L125.373 115.883C125.916 116.693 127.954 120.136 128.457 121.004C128.636 121.319 128.854 121.625 129.063 121.916C129.242 122.168 129.416 122.415 129.581 122.677C129.803 123.041 130.016 123.414 130.224 123.782C130.413 124.117 130.602 124.452 130.801 124.776C131.014 125.126 131.241 125.47 131.464 125.809C131.629 126.057 131.793 126.304 131.953 126.556C132.011 126.648 132.055 126.75 132.103 126.852C132.156 126.978 132.21 127.094 132.287 127.177C132.418 127.317 132.694 127.351 132.994 127.259C133.318 127.162 133.57 126.949 133.599 126.745C133.652 126.411 133.647 126.071 133.647 125.712C133.647 125.528 133.647 125.344 133.652 125.16C133.662 124.927 133.676 124.694 133.686 124.461C133.706 124.088 133.73 123.715 133.73 123.336C133.739 122.124 133.735 120.907 133.735 119.695V105.245C133.735 99.5472 133.735 93.8545 133.735 88.157C133.735 87.609 133.759 87.0514 133.783 86.5083C133.807 85.9652 133.831 85.4076 133.831 84.8597V82.503C133.831 79.2591 133.831 73.8864 133.831 73.3579C133.836 71.8207 133.831 70.2836 133.831 68.7465C133.831 67.0978 133.831 65.4443 133.836 63.7957C133.836 63.112 133.875 62.4234 133.904 61.7543C133.919 61.4973 133.928 61.2354 133.938 60.9784C133.948 60.1153 134.161 60.1153 136.509 60.1153C136.794 60.1153 137.08 60.1153 137.351 60.1056C138.053 60.1056 138.746 60.1298 139.438 60.1541C140.033 60.1735 140.634 60.1929 141.229 60.2026C142.275 60.2171 143.326 60.2123 144.376 60.2074H145.742H146.681C147.392 60.2074 148.099 60.2123 148.811 60.2026C149.339 60.1929 149.866 60.1735 150.394 60.1541C150.995 60.1298 151.59 60.1104 152.19 60.1008C154.006 60.0814 156.127 60.1056 156.8 60.1056C158.693 60.1056 158.886 60.6341 158.886 61.6912C158.886 62.4816 158.915 65.1582 158.91 66.8457V89.2771V90.2566C158.91 91.0276 158.915 91.7937 158.906 92.5647C158.891 93.4278 158.891 96.8415 158.906 97.6901C158.925 98.6211 158.92 99.5521 158.906 100.42C158.891 101.564 158.877 102.714 158.862 103.858C158.843 105.507 158.818 107.16 158.804 108.809C158.804 109.085 158.804 109.4 158.92 109.604C159.002 109.749 159.254 109.905 159.419 109.914C160.121 109.948 160.837 109.939 161.53 109.939C161.791 109.939 162.048 109.939 162.309 109.939H176.863C177.715 109.939 178.286 110.356 178.712 111.282C178.964 111.835 178.882 113.454 178.756 115.35L178.785 115.345Z" fill="#535660"/>
    <path d="M67.493 113.289C67.4833 112.441 67.4785 111.864 67.4785 111.738C67.4785 111.641 67.4785 111.548 67.4785 111.466C67.4882 110.991 67.4979 110.399 67.0379 109.929C66.5586 109.439 65.8759 109.4 65.1594 109.4C64.5155 109.4 60.4341 109.313 57.4566 109.245C55.6894 109.206 54.2418 109.172 53.9368 109.172C53.0556 109.163 52.1745 109.163 51.2885 109.172C50.141 109.172 48.9549 109.182 47.7881 109.148C47.7445 108.474 47.7154 107.398 47.7154 106.438C47.7154 105.638 47.7397 105.157 47.7687 104.867C48.4562 104.867 49.7682 104.867 51.2013 104.867C53.8787 104.867 56.9143 104.871 57.2145 104.867C58.2651 104.857 59.3205 104.857 60.3712 104.862H62.5692C62.9759 104.867 63.3874 104.871 63.7893 104.862C65.3095 104.837 66.6796 103.606 66.7232 102.224C66.7619 100.861 66.7619 99.4454 66.7232 98.0101C66.7087 97.5106 66.6651 97.0209 66.6215 96.5505C66.578 96.0802 66.5296 95.6001 66.5247 95.1443C66.5053 93.6217 66.5102 92.0992 66.5102 90.5717C66.5102 89.5631 66.5102 88.5594 66.5102 87.5508C66.5102 86.4307 65.9534 85.4997 65.0384 85.0536C64.317 84.7045 63.4407 84.365 62.3949 84.5153C62.1916 84.5396 61.262 84.559 57.9746 84.5153H57.597C56.4931 84.5008 55.3892 84.5008 54.2902 84.5056H52.8813C52.3633 84.5056 51.8404 84.5153 51.3224 84.5202H51.2062C50.0878 84.5347 48.9307 84.5444 47.8074 84.5008C47.7978 84.1614 47.7929 83.628 47.8026 82.7843L47.8123 81.7951C47.8123 81.4459 47.822 81.1744 47.8171 81.0483C47.8171 80.8059 47.8171 80.5634 47.8171 80.321C48.1512 80.321 48.4901 80.321 48.8338 80.321C49.4632 80.321 50.0975 80.3161 50.7317 80.3258C51.2255 80.3307 51.7145 80.3501 52.2084 80.3646L52.2423 79.2736C51.7436 79.259 51.2449 79.2397 50.7462 79.2348C50.1072 79.2251 49.4681 79.2251 48.829 79.23C48.4271 79.23 48.0253 79.23 47.6235 79.23C46.8585 79.23 46.7375 79.3609 46.7326 80.1319C46.7326 80.4422 46.7326 80.7477 46.7326 81.058C46.7326 81.2811 46.7229 81.9939 46.7133 82.7746C46.7036 83.9238 46.7133 85.2233 46.7956 85.33C46.9118 85.4754 46.9795 85.5385 47.3088 85.5676C47.3814 85.5724 47.4492 85.5773 47.5315 85.5821C48.7757 85.6403 50.0442 85.6258 51.2691 85.6112C51.8065 85.6064 52.3439 85.6015 52.8813 85.6015H54.2902C55.3892 85.5967 56.4883 85.5918 57.5824 85.6015H57.9601C59.3109 85.6209 62.1189 85.6549 62.5402 85.5918C63.2954 85.4803 63.9587 85.7373 64.5591 86.0282C65.0916 86.2901 65.416 86.8574 65.416 87.5508C65.416 88.5545 65.416 89.5583 65.416 90.562C65.416 92.0895 65.416 93.6169 65.4305 95.1492C65.4354 95.6438 65.4838 96.1529 65.5322 96.6475C65.5758 97.0984 65.6193 97.5688 65.629 98.0295C65.6678 99.4502 65.6629 100.847 65.629 102.185C65.6048 102.98 64.7043 103.751 63.7699 103.766C63.339 103.775 62.9129 103.771 62.4821 103.766H60.4777C59.3835 103.761 58.2941 103.756 57.2 103.766C56.6819 103.771 47.6622 103.756 47.2652 103.756C46.873 103.756 46.6213 103.756 46.6213 106.418C46.6213 107.514 46.66 108.721 46.7133 109.386C46.7568 109.968 47.0328 110.2 47.6912 110.22C48.8871 110.254 50.112 110.249 51.2885 110.244C52.1648 110.244 53.0411 110.239 53.9174 110.244C54.7453 110.254 64.1233 110.472 65.1546 110.472C66.5489 110.472 66.3795 110.71 66.3795 111.718C66.3795 111.844 66.3843 112.426 66.394 113.279C66.4327 116.897 66.5247 125.465 66.5247 125.552C66.5005 126.183 66.5053 126.828 66.5102 127.453C66.5102 127.725 66.5102 127.991 66.5102 128.263C66.5102 129.247 66.2633 129.49 65.2417 129.49H63.0969C61.0393 129.49 58.9816 129.494 56.9288 129.49C56.3479 129.49 55.7669 129.47 55.1811 129.451C54.5371 129.431 53.8642 129.412 53.2202 129.412C52.983 129.412 52.3052 129.431 51.5741 129.451C50.5719 129.48 49.5407 129.504 49.3422 129.499C49.0759 129.49 48.8096 129.49 48.5433 129.494H48.1899H47.1393C46.355 129.494 45.5707 129.49 44.7863 129.499C44.1182 129.509 43.4452 129.528 42.7771 129.543C41.8282 129.567 40.8502 129.596 39.8819 129.596C38.9765 129.596 36.8705 129.596 35.5197 129.596C34.9048 129.596 34.4449 129.596 34.3238 129.596C33.5782 129.587 32.8326 129.572 32.0871 129.553C30.9929 129.528 29.8648 129.504 28.7561 129.499C27.8507 129.499 26.8824 129.524 25.9674 129.543C25.1685 129.562 24.3745 129.582 23.5757 129.587H23.566C22.07 129.587 22.0942 129.179 22.0942 126.968C22.0942 126.59 22.07 126.197 22.07 125.853C22.0893 117.993 22.1135 110.137 22.1378 102.277L22.1765 89.5486C22.1813 87.7787 22.1765 86.0137 22.1765 84.2438V78.522C22.1765 74.6234 22.1765 70.7297 22.1765 66.8311C22.1765 66.5741 22.283 62.5252 22.283 62.1179C22.283 60.639 22.6122 60.7068 23.6725 60.7068C23.8855 60.7068 25.1685 60.7068 26.8437 60.7068C30.3974 60.6972 35.7666 60.6875 36.3573 60.7214C36.7204 60.7456 37.0932 60.7408 37.4563 60.7311C37.6209 60.7311 37.7904 60.7165 37.9501 60.7311H39.5962C40.947 60.7311 42.2978 60.7359 43.6486 60.7262C44.0504 60.7262 44.4474 60.702 44.8493 60.6778C45.2753 60.6535 45.7159 60.6293 46.1516 60.6293C46.8827 60.6293 49.5746 60.5614 50.1798 60.5226C50.9108 60.4789 54.0288 60.4402 55.8928 60.4208C56.5754 60.4111 57.0741 60.4062 57.1854 60.4014C57.9988 60.3771 61.4605 60.4208 62.3416 60.4886C62.8984 60.5323 63.4552 60.5759 64.0168 60.6244C64.4913 60.6632 65.019 60.7941 65.3192 61.4875C65.6484 62.2391 65.7549 62.918 65.6629 63.6744C65.6145 64.1011 65.6484 64.5327 65.6871 64.9885C65.7162 65.3279 65.7452 65.6771 65.7355 66.0213C65.7017 67.2481 65.7355 72.0874 65.7355 72.4996C65.7549 73.8233 65.7501 75.1714 65.7452 76.4757V77.4989C65.7452 78.3814 65.1013 79.099 64.1911 79.2348C63.9442 79.2736 62.5208 79.259 60.8214 79.2445C60.2501 79.2397 59.7708 79.2348 59.5529 79.2348C58.7396 79.2348 57.9262 79.259 57.1177 79.2736C56.222 79.293 55.3263 79.3124 54.4258 79.3124C53.7141 79.3124 52.9685 79.293 52.2568 79.2687C52.2423 79.2687 52.2326 79.2687 52.2181 79.2687L52.2471 80.3598C52.9636 80.384 53.6996 80.4083 54.4209 80.4034C55.3263 80.4034 56.2268 80.384 57.1758 80.3598C57.9698 80.3452 58.7589 80.3258 59.5529 80.321C59.7369 80.321 60.1097 80.321 60.5697 80.3258H60.7972C63.3342 80.3549 64.0604 80.3501 64.3412 80.3064C65.7743 80.0882 66.8152 78.9051 66.82 77.494V76.4466C66.8249 75.1471 66.8297 73.7991 66.8104 72.4802C66.8055 72.0874 66.7765 67.253 66.8104 66.0456C66.82 65.6383 66.791 65.2406 66.7619 64.8915C66.7281 64.4745 66.699 64.1157 66.7329 63.7957C66.8442 62.8453 66.7087 61.9724 66.3068 61.0414C65.9098 60.125 65.1642 59.6158 64.0943 59.5285C63.5327 59.4801 62.9759 59.4364 62.4143 59.3928C61.5041 59.3249 58.0085 59.2764 57.1419 59.3006C57.0354 59.3006 56.5464 59.3103 55.8589 59.32C53.3268 59.3491 50.7995 59.3831 50.1023 59.4267C49.5213 59.4607 46.8343 59.5285 46.1371 59.5334C45.6772 59.5334 45.2221 59.5576 44.7767 59.5819C44.3942 59.6013 44.0117 59.6255 43.6292 59.6255C42.3511 59.6352 41.0729 59.6352 39.7947 59.6304H37.9743C37.8388 59.6207 37.7032 59.6255 37.5628 59.6304H37.4272C37.0544 59.6401 36.7252 59.6449 36.4105 59.6255C35.878 59.5964 32.3485 59.5964 26.834 59.611C25.2847 59.611 24.0744 59.611 23.7306 59.611H23.5321C22.9172 59.611 22.2733 59.611 21.7601 60.1201C21.2566 60.6729 21.213 61.4487 21.213 62.1373C21.213 62.3555 21.1791 63.7957 21.1501 64.9546C21.1259 65.9001 21.1065 66.7341 21.1065 66.8505C21.1017 70.6182 21.1017 74.3858 21.1017 78.1535V84.268C21.1017 86.0331 21.1017 87.803 21.1017 89.568L21.0629 102.297C21.0436 110.152 21.0194 118.012 21 125.867C21 126.052 21.0048 126.246 21.0097 126.444C21.0145 126.624 21.0194 126.803 21.0194 126.983V127.085C21.0194 128.302 21.0194 129.039 21.3195 129.63C21.8521 130.687 23.0092 130.692 23.5902 130.692H23.5999C24.4036 130.692 25.2073 130.668 26.011 130.649C26.9163 130.624 27.8749 130.61 28.7706 130.605C29.8745 130.605 30.9977 130.629 32.0774 130.658C32.8278 130.678 33.5782 130.692 34.3287 130.702C34.4497 130.702 34.9145 130.702 35.5391 130.702C36.8947 130.702 38.9959 130.702 39.9061 130.702C40.8647 130.702 41.8282 130.678 42.7626 130.653H42.8255C43.4888 130.634 44.1569 130.615 44.8202 130.605C45.5997 130.595 46.3743 130.595 47.1538 130.6H48.2141H48.5821C48.8242 130.6 49.0662 130.595 49.3131 130.605C49.5213 130.615 50.2234 130.595 51.6177 130.556C52.3342 130.537 53.0024 130.518 53.2348 130.518C53.8303 130.518 54.4645 130.537 55.1859 130.556C55.7669 130.576 56.3527 130.59 56.9337 130.595C58.9913 130.605 61.0538 130.605 63.1114 130.6H65.2514C66.8588 130.6 67.6044 129.863 67.6092 128.277C67.6092 128.03 67.6092 127.788 67.6092 127.54V127.458C67.6044 126.847 67.5995 126.217 67.6237 125.61C67.6237 125.547 67.6237 125.295 67.5608 119.515L67.493 113.284V113.289Z" fill="#535660"/>
    <path d="M43.2468 136.841C43.2468 138.31 43.2468 140.39 43.2419 140.526C43.2274 140.768 43.0676 141.219 42.8497 141.219C42.6319 141.219 42.477 141.122 42.4431 140.894C42.4285 140.783 42.4382 140.662 42.4382 140.545C42.4382 138.261 42.4382 135.978 42.4382 133.694C42.4382 133.577 42.4382 133.461 42.4382 133.345C42.4479 133.112 42.5835 133.01 42.8062 132.976C43.3097 132.903 43.5034 133 43.6873 133.485C44.1957 134.838 44.6944 136.201 45.2027 137.553C45.3189 137.869 45.4545 138.179 45.5804 138.489C45.6239 138.484 45.6675 138.475 45.7111 138.47C45.7304 138.334 45.7595 138.194 45.7595 138.058C45.7595 136.608 45.7595 135.153 45.7595 133.703C45.7595 133.568 45.7595 133.432 45.7692 133.296C45.7837 133.088 45.9144 132.995 46.1129 132.981C46.326 132.966 46.5002 133.034 46.5583 133.262C46.5826 133.374 46.5729 133.495 46.5729 133.611C46.5729 135.934 46.5729 139.862 46.5729 139.862C46.5729 139.862 46.5099 141.181 46.1855 141.229C45.7498 141.292 45.5562 141.185 45.4012 140.764C44.8299 139.226 44.2635 137.684 43.697 136.142C43.6147 135.915 43.576 135.793 43.4356 135.464C43.1838 134.887 43.2468 136.656 43.2468 136.846V136.841Z" fill="#535660"/>
    <path d="M156.073 137.932C156.073 136.521 156.073 135.105 156.073 133.694C156.073 133.558 156.068 133.422 156.083 133.286C156.102 133.078 156.238 132.991 156.436 132.981C156.649 132.971 156.824 133.039 156.872 133.272C156.896 133.383 156.887 133.505 156.887 133.621C156.887 135.944 156.887 138.266 156.887 140.589C156.887 141.156 156.683 141.316 156.141 141.219C155.899 141.176 155.802 141.03 155.72 140.802C155.158 139.241 154.577 137.684 154.006 136.128C153.924 135.905 153.856 135.541 153.725 135.41C153.594 135.279 153.56 135.847 153.56 136.021C153.556 137.49 153.56 138.286 153.56 139.755C153.56 139.891 153.56 140.41 153.56 140.545C153.56 140.817 153.401 141.224 153.154 141.219C152.907 141.214 152.757 141.088 152.752 140.827C152.752 140.73 152.752 140.633 152.752 140.536C152.752 138.252 152.752 135.968 152.752 133.684C152.752 133.587 152.752 133.49 152.752 133.393C152.752 133.136 152.878 133.01 153.134 132.976C153.648 132.908 153.822 133 154.006 133.495C154.553 134.959 155.095 136.429 155.647 137.888C155.725 138.092 156.083 139.357 156.083 137.927L156.073 137.932Z" fill="#535660"/>
    <path d="M94.8039 137.093C94.8039 136.031 94.8039 134.969 94.8039 133.902C94.8039 133.393 95.2154 132.976 95.7238 132.971C95.9756 132.971 96.2322 132.971 96.4839 132.971C97.3796 132.986 98.1736 133.616 98.3382 134.494C98.4689 135.202 98.4302 135.9 98.0332 136.545C97.8976 136.773 97.9461 136.943 98.0768 137.127C98.6287 137.917 98.6287 138.78 98.4399 139.639C98.2365 140.565 97.4086 141.219 96.4597 141.224C96.1305 141.224 96.0191 141.224 95.6899 141.224C95.0557 141.219 94.7991 140.904 94.7991 140.245C94.7991 139.1 94.7991 138.227 94.7991 137.088L94.8039 137.093ZM95.6948 138.746C95.6948 138.921 95.6948 139.091 95.6948 139.265C95.6948 140.148 95.7819 140.148 96.6824 140.114C97.1811 140.094 97.3893 139.891 97.5539 139.43C97.6749 139.1 97.6991 138.766 97.641 138.436C97.5394 137.844 96.9874 137.427 96.3871 137.437C96.3774 137.437 96.3677 137.437 96.358 137.437C95.9901 137.447 95.6996 137.743 95.6996 138.111C95.6996 138.32 95.6996 138.533 95.6996 138.741L95.6948 138.746ZM95.6948 136.012C95.6948 136.147 95.7867 136.264 95.9126 136.298C96.2273 136.39 96.5033 136.341 96.7841 136.283C97.2537 136.181 97.4377 135.968 97.4716 135.493C97.4813 135.337 97.4813 135.182 97.4716 135.032C97.4474 134.445 97.1714 134.145 96.5953 134.082C96.4065 134.062 96.208 134.072 96.0191 134.082C95.8061 134.086 95.6996 134.213 95.6996 134.411C95.6996 134.94 95.6996 135.468 95.6996 136.012H95.6948Z" fill="#535660"/>
    <path d="M79.9405 138.557C79.9405 138.349 79.9405 138.019 79.9405 137.81C79.9405 136.38 79.9405 134.945 79.9405 133.514C79.9405 133.117 80.0325 132.995 80.3133 132.981C80.5602 132.966 80.7297 133.306 80.7442 133.582C80.7491 133.699 80.7442 134.421 80.7442 134.537C80.7442 136.821 80.7442 138.247 80.7442 140.531C80.7442 140.57 80.7442 140.608 80.7442 140.647C80.7491 140.904 80.7636 141.161 80.415 141.224C80.0132 141.297 79.7469 141.19 79.6162 140.846C79.1949 139.726 78.7883 138.601 78.3767 137.476C78.1346 136.812 77.7522 135.551 77.6311 135.304C77.5101 135.056 77.4617 135.788 77.4617 135.939C77.452 137.447 77.4617 138.397 77.4568 139.905C77.4568 140.06 77.4714 140.633 77.4423 140.783C77.3697 140.977 77.1809 141.185 77.0066 141.224C76.8129 141.214 76.6725 141.122 76.6531 140.914C76.6435 140.797 76.6483 140.681 76.6483 140.565C76.6483 138.261 76.6483 135.958 76.6483 133.655C76.6483 133.025 76.7936 132.908 77.4036 132.981C77.665 133.01 77.757 133.17 77.8345 133.379C78.1589 134.246 78.4881 135.114 78.8125 135.978C79.0739 136.681 79.3353 137.389 79.5968 138.097C79.6452 138.227 79.834 138.591 79.9405 138.562V138.557Z" fill="#535660"/>
    <path d="M61.6687 136.065C61.6687 137.534 61.6687 138.567 61.6687 140.036C61.6687 140.172 61.6783 140.618 61.6638 140.754C61.6299 141.016 61.4508 141.239 61.2087 141.224C60.9812 141.21 60.8553 141.084 60.8601 140.846C60.8601 140.749 60.8601 140.652 60.8601 140.555C60.8601 138.252 60.8601 135.948 60.8601 133.645C60.8601 133.025 61.015 132.908 61.6251 132.981C61.9253 133.015 61.9882 133.228 62.0705 133.442C62.4481 134.455 62.8258 135.464 63.2034 136.477C63.4068 137.02 63.6004 137.563 63.8086 138.106C63.857 138.237 64.2153 138.334 64.1475 137.922C64.1475 136.53 64.1475 135.134 64.1475 133.742C64.1475 133.587 64.133 133.432 64.162 133.277C64.2008 133.044 64.3751 132.976 64.5929 132.981C64.7914 132.986 64.927 133.073 64.9512 133.282C64.9657 133.378 64.9609 133.475 64.9609 133.572C64.9609 135.915 64.9706 139.92 64.9706 140.148C64.9706 140.376 64.8205 141.282 64.2153 141.214C63.9635 141.185 63.8812 140.991 63.8038 140.783C63.4019 139.677 62.9952 138.572 62.5885 137.466C62.3465 136.802 61.8526 135.478 61.8526 135.478C61.8526 135.478 61.6735 135.59 61.6735 136.065H61.6687Z" fill="#535660"/>
    <path d="M21.6488 137.059C21.6488 135.9 21.6488 134.954 21.6488 133.796C21.6488 133.257 21.9974 132.981 22.5348 132.971C22.8834 132.966 22.9415 132.981 23.2901 132.971C24.3116 132.937 24.9701 133.466 25.3768 134.339C25.8609 135.376 25.9674 136.492 25.8803 137.617C25.8367 138.189 25.735 138.771 25.5511 139.309C25.3913 139.774 25.125 140.216 24.8248 140.608C24.5101 141.021 24.0308 141.214 23.5031 141.224C23.0964 141.234 22.9415 141.229 22.5348 141.224C21.9635 141.219 21.6488 140.856 21.6488 140.293C21.6488 139.115 21.6488 138.237 21.6488 137.059ZM22.5396 137.112C22.5396 137.922 22.5396 138.732 22.5396 139.546C22.5396 140.08 22.9851 140.143 23.1497 140.114C24.0018 140.075 24.5053 139.687 24.7571 138.795C25.0766 137.66 25.0863 136.511 24.7571 135.376C24.4811 134.436 23.9485 134.077 23.0093 134.14C23.0093 134.14 22.5542 134.203 22.5493 134.625C22.5396 135.454 22.5493 136.283 22.5493 137.112H22.5396Z" fill="#535660"/>
    <path d="M40.5355 140.817C40.2789 140.967 40.061 141.137 39.8141 141.229C39.0104 141.53 38.1632 141.195 37.7032 140.366C37.4805 139.963 37.3014 139.522 37.1997 139.076C36.885 137.68 36.8947 136.278 37.3014 134.901C37.4176 134.508 37.6015 134.111 37.8291 133.766C38.1874 133.228 38.8264 132.942 39.4704 132.995C41.0487 133.122 41.0874 134.159 41.3924 135.032C41.4651 135.241 41.4409 135.415 41.2085 135.502C40.9615 135.595 40.6662 135.502 40.5597 135.279C40.4919 135.144 40.4677 134.984 40.4096 134.843C40.2208 134.387 39.9448 134.028 39.3977 134.023C38.8458 134.023 38.4972 134.334 38.2987 134.824C37.9114 135.774 37.8339 136.778 37.9308 137.786C37.9743 138.261 38.1147 138.732 38.2406 139.197C38.289 139.382 38.3859 139.561 38.4972 139.711C38.9911 140.39 39.8867 140.347 40.2208 139.58C40.4145 139.134 40.458 138.94 40.55 138.451C40.5887 138.237 40.4532 137.806 40.245 137.796C40.032 137.791 39.8189 137.801 39.6059 137.786C39.2573 137.762 39.1847 137.655 39.1799 137.238C39.1799 136.831 39.2573 136.715 39.6108 136.7C40.0078 136.686 40.4048 136.69 40.8066 136.7C41.131 136.7 41.3876 136.967 41.3876 137.287C41.3876 138.465 41.3924 139.643 41.3779 140.822C41.3779 140.948 41.2666 141.137 41.1649 141.176C41.0584 141.214 40.8889 141.127 40.763 141.059C40.6711 141.006 40.6081 140.899 40.5355 140.817Z" fill="#535660"/>
    <path d="M148.22 137.088C148.22 135.924 148.22 134.765 148.22 133.602C148.22 133.029 148.274 132.976 148.855 132.971C149.315 132.966 149.774 132.957 150.234 132.976C150.922 133.01 151.503 133.485 151.701 134.145C151.977 135.071 151.992 135.992 151.44 136.841C151.304 137.049 151.3 137.219 151.425 137.427C151.73 137.917 151.789 138.47 151.779 139.037C151.769 139.605 151.793 140.157 151.808 140.72C151.818 141.064 151.73 141.19 151.459 141.219C151.169 141.253 151.014 141.151 150.966 140.807C150.912 140.41 150.907 140.002 150.888 139.6C150.874 139.27 150.903 138.94 150.869 138.615C150.791 137.893 150.205 137.413 149.547 137.718C149.223 137.83 149.121 138.232 149.116 138.378C149.097 139.115 149.106 139.614 149.106 140.351C149.106 140.487 149.111 140.623 149.106 140.759C149.087 141.103 148.966 141.229 148.661 141.229C148.361 141.229 148.225 141.098 148.22 140.754C148.211 139.687 148.22 138.625 148.22 137.558C148.22 137.403 148.22 137.248 148.22 137.093V137.088ZM149.121 136.142C149.121 136.589 149.823 136.574 150.05 136.574C150.757 136.574 150.888 136.278 150.966 135.59C150.985 135.401 151.004 135.192 150.961 135.013C150.869 134.634 150.738 134.247 150.283 134.169C150.002 134.12 149.702 134.125 149.416 134.164C149.31 134.179 149.14 134.343 149.135 134.445C149.111 135.114 149.126 135.9 149.126 136.147L149.121 136.142Z" fill="#535660"/>
    <path d="M147.363 137.098C147.373 137.971 147.271 138.824 146.981 139.653C146.782 140.206 146.453 140.657 145.988 141.025C145.441 141.462 144.671 141.501 144.105 141.088C143.476 140.628 143.142 139.997 142.953 139.275C142.517 137.607 142.522 135.953 143.175 134.343C143.321 133.98 143.587 133.64 143.868 133.364C144.662 132.593 145.829 132.729 146.492 133.621C147.092 134.431 147.276 135.371 147.363 136.341C147.383 136.589 147.363 136.841 147.363 137.093V137.098ZM146.487 137.204C146.468 136.894 146.468 136.584 146.434 136.278C146.356 135.561 146.192 134.862 145.688 134.28C145.388 133.931 144.802 133.888 144.463 134.198C144.124 134.508 143.902 134.95 143.781 135.401C143.485 136.521 143.476 137.655 143.8 138.771C143.921 139.192 144.129 139.614 144.41 139.939C144.71 140.283 145.248 140.303 145.577 139.993C145.853 139.731 146.105 139.357 146.211 138.979C146.366 138.407 146.502 137.214 146.487 137.209V137.204Z" fill="#535660"/>
    <path d="M51.9179 137.03C51.9179 135.915 51.9179 135.042 51.9179 133.936C51.9179 133.408 52.344 132.981 52.8717 132.971C53.2106 132.971 53.2009 132.981 53.5301 132.971C54.5759 132.932 55.244 133.485 55.6459 134.387C56.2027 135.624 56.2269 136.933 56.0574 138.252C55.9557 139.042 55.733 139.794 55.2247 140.443C54.8567 140.914 54.3919 141.19 53.8013 141.219C53.3365 141.244 53.3365 141.234 52.8717 141.219C52.4553 141.205 51.9228 140.996 51.9179 140.55C51.9131 139.333 51.9179 138.242 51.9179 137.025V137.03ZM52.77 137.064C52.77 137.912 52.77 138.761 52.77 139.614C52.77 139.833 53.0412 140.041 53.3171 140.109C53.8981 140.25 54.3677 139.978 54.6727 139.459C54.847 139.163 54.9778 138.838 55.0697 138.509C55.2731 137.772 55.244 137.006 55.1714 136.254C55.1327 135.856 55.031 135.464 54.8712 135.095C54.5323 134.3 54.3919 134.096 53.5301 134.135C53.0702 134.154 52.7749 134.208 52.77 134.688C52.7652 135.478 52.77 136.269 52.77 137.064Z" fill="#535660"/>
    <path d="M114.039 136.045C114.039 136.104 114.126 136.385 114.635 136.385C115.259 136.385 116.247 136.375 116.252 136.273C116.262 136.142 116.281 135.851 116.281 135.662C116.281 134.964 116.281 134.271 116.281 133.572C116.281 133.097 116.373 132.986 116.707 132.971C117.022 132.957 117.181 133.665 117.177 134.062C117.157 136.443 117.167 138.3 117.172 140.681C117.172 140.904 117.157 141.108 116.901 141.195C116.557 141.311 116.286 141.132 116.281 140.749C116.271 139.896 116.281 139.047 116.281 138.194C116.281 138.038 116.315 137.869 116.262 137.733C116.218 137.616 116.078 137.456 115.971 137.452C115.434 137.423 115.1 137.432 114.557 137.442C113.991 137.442 114.034 138.106 114.034 138.329C114.034 139.125 114.034 139.488 114.034 140.279C114.034 140.434 114.039 140.589 114.034 140.744C114.015 141.088 113.889 141.214 113.589 141.214C113.289 141.214 113.163 141.084 113.148 140.739C113.139 140.429 113.148 140.119 113.148 139.808C113.148 137.738 113.148 136.06 113.153 133.989C113.153 133.81 113.187 133.189 113.294 133.073C113.381 132.976 113.613 132.976 113.778 133C113.981 133.029 114.039 133.204 114.039 133.398C114.039 134.135 114.039 134.867 114.039 135.604C114.039 135.813 114.039 135.818 114.039 136.041V136.045Z" fill="#535660"/>
    <path d="M170.472 136.07C170.472 136.846 170.491 137.616 170.467 138.392C170.443 139.091 170.351 139.779 169.997 140.4C169.465 141.345 168.38 141.636 167.436 140.996C167.301 140.904 167.18 140.778 167.088 140.642C166.584 139.896 166.478 139.052 166.458 138.218C166.42 136.652 166.444 135.085 166.449 133.519C166.449 133.102 166.555 132.986 166.879 132.981C167.175 132.976 167.305 133.393 167.33 133.694C167.344 133.849 167.33 134.28 167.33 134.436C167.344 135.963 167.344 136.904 167.378 138.431C167.388 138.79 167.485 139.158 167.601 139.498C167.761 139.963 168.114 140.201 168.506 140.182C168.976 140.157 169.266 139.871 169.378 139.454C169.489 139.028 169.562 138.581 169.566 138.145C169.591 136.676 169.576 135.207 169.576 133.732C169.576 133.597 169.571 133.461 169.586 133.325C169.61 133.054 169.852 132.981 170.031 132.981C170.21 132.981 170.443 133.32 170.462 133.587C170.467 133.703 170.467 134.179 170.467 134.295C170.467 135.09 170.467 135.279 170.467 136.07H170.472Z" fill="#535660"/>
    <path d="M27.7588 140.036C28.4705 140.036 28.6787 140.06 29.0612 140.065C29.371 140.065 29.4969 140.056 29.8019 140.07C30.1602 140.089 30.2376 140.182 30.2425 140.531C30.2425 141.088 30.1263 141.219 29.5744 141.224C28.8191 141.229 28.0687 141.234 27.3134 141.224C26.8486 141.219 26.7614 140.594 26.7614 140.143C26.7566 137.743 26.7566 136.215 26.7614 133.82C26.7614 133.398 27.0907 132.986 27.5167 132.976C28.3107 132.966 28.8578 132.966 29.6518 132.976C30.0634 132.981 30.1166 133.063 30.1215 133.524C30.1263 134.033 30.073 134.116 29.647 134.13C29.1435 134.145 28.6399 134.13 28.1413 134.14C27.6959 134.149 27.6571 134.47 27.6474 134.925C27.6378 135.313 27.6426 135.425 27.6474 135.813C27.6571 136.288 28.0057 136.332 28.4947 136.341C28.9208 136.351 29.037 136.341 29.463 136.346C29.9423 136.356 29.9956 136.419 30.0053 136.884C30.0149 137.413 29.9568 137.49 29.4824 137.505C28.9982 137.52 28.5141 137.505 28.0348 137.515C27.8217 137.515 27.6523 138 27.6474 138.257C27.6474 138.95 27.6523 139.672 27.754 140.041L27.7588 140.036Z" fill="#535660"/>
    <path d="M90.3691 140.065C90.6984 140.07 91.3665 140.056 91.6909 140.07C92.054 140.09 92.4946 140.182 92.4946 140.531C92.4946 141.088 92.3784 141.219 91.8313 141.224C91.076 141.229 90.3256 141.234 89.5703 141.224C89.1055 141.219 88.9409 140.802 88.9409 140.351C88.936 137.951 88.936 136.312 88.9409 133.917C88.9409 133.49 89.2556 132.986 89.6865 132.981C90.4805 132.971 91.1147 132.971 91.9087 132.981C92.3203 132.986 92.3784 133.068 92.3832 133.524C92.388 134.033 92.054 134.116 91.6279 134.13C91.1244 134.145 91.1777 134.13 90.6741 134.14C90.2287 134.15 89.9189 134.193 89.9092 134.654C89.8995 135.042 89.9043 135.43 89.9092 135.813C89.9189 136.288 90.2287 136.332 90.7177 136.341C91.1244 136.351 91.0711 136.341 91.473 136.341C92.0201 136.351 92.2718 136.409 92.267 136.938C92.267 137.432 92.2089 137.49 91.6909 137.5C91.2261 137.51 90.7613 137.5 90.3013 137.505C90.0447 137.505 89.9092 137.617 89.9092 137.888C89.9092 140.051 90.0109 140.051 90.374 140.056L90.3691 140.065Z" fill="#535660"/>
    <path d="M131.803 141.229C131.575 141.253 131.396 141.156 131.323 140.885C131.241 140.57 131.193 140.245 131.115 139.929C130.859 138.906 130.97 138.848 130.326 138.838C130.229 138.838 130.132 138.838 130.036 138.838C128.903 138.824 129.179 138.838 128.912 139.823C128.82 140.153 128.767 140.497 128.699 140.836C128.656 141.04 128.554 141.181 128.341 141.224C127.939 141.307 127.75 141.137 127.838 140.73C128.128 139.333 128.544 137.418 128.728 136.54C128.912 135.662 129.072 134.925 129.295 133.907C129.392 133.461 129.542 132.995 129.953 132.986C130.389 132.976 130.563 133.393 130.665 133.839C131.125 135.852 131.493 137.51 131.948 139.527C132.04 139.939 132.146 140.351 132.229 140.768C132.301 141.122 132.209 141.229 131.803 141.239V141.229ZM130.176 135.614C130.142 135.468 129.939 135.459 129.895 135.599C129.735 136.109 129.518 136.913 129.43 137.408C129.416 137.481 129.576 137.646 129.668 137.66C129.944 137.694 130.302 137.723 130.442 137.544C130.558 137.393 130.35 136.414 130.176 135.619V135.614Z" fill="#535660"/>
    <path d="M163.999 141.117C163.887 141.277 163.176 141.263 163.021 140.623C162.919 140.191 162.827 139.76 162.725 139.328C162.624 138.887 162.58 138.848 162.154 138.838C161.864 138.834 161.573 138.848 161.283 138.838C160.997 138.824 160.857 138.965 160.803 139.226C160.702 139.697 160.6 140.167 160.494 140.637C160.358 141.244 159.729 141.253 159.559 141.113C159.39 140.972 159.578 140.705 159.622 140.506C160.111 138.208 160.61 135.905 161.104 133.606C161.225 133.044 161.292 132.976 161.752 132.981C162.149 132.981 162.256 133.058 162.348 133.461C163.122 136.007 163.427 138.237 163.96 140.628C163.994 140.793 164.11 140.957 163.999 141.117ZM162.052 136.113C161.922 135.512 161.646 135.022 161.428 136.113C161.331 136.535 161.249 136.967 161.22 137.432C161.21 137.563 161.321 137.675 161.452 137.68C161.655 137.68 161.835 137.68 162.014 137.68C162.251 137.68 162.377 137.568 162.319 137.316C162.232 136.918 162.183 136.724 162.052 136.123V136.113Z" fill="#535660"/>
    <path d="M175.362 141.098C175.362 140.938 175.362 140.763 175.396 140.603C175.904 138.227 176.553 134.445 176.926 133.475C177.114 133.185 177.119 132.966 177.555 132.976C177.962 132.981 178.243 133.791 178.344 134.256C178.877 136.608 179.211 138.227 179.739 140.579C179.777 140.744 179.835 140.807 179.802 141.074C179.768 141.341 178.954 141.481 178.828 140.671C178.712 140.201 178.654 139.983 178.562 139.512C178.504 139.222 178.305 138.829 178.005 138.838C177.705 138.848 177.39 138.843 177.081 138.838C176.771 138.834 176.601 139.168 176.538 139.459C176.442 139.929 176.379 140.245 176.272 140.715C176.151 141.253 175.352 141.273 175.352 141.113L175.362 141.098ZM177.419 135.386C177.289 135.832 177.148 136.613 177.066 137.263C177.037 137.476 177.206 137.665 177.424 137.67C177.521 137.67 177.618 137.67 177.71 137.67C177.971 137.67 178.141 137.456 178.088 137.199C177.962 136.622 177.831 136.041 177.691 135.401C177.662 135.26 177.463 135.25 177.424 135.386H177.419Z" fill="#535660"/>
    <path d="M107.697 141.127C107.605 141.234 106.864 141.258 106.714 140.647C106.603 140.196 106.511 139.745 106.404 139.294C106.312 138.897 106.254 138.848 105.867 138.838C105.576 138.829 105.286 138.853 104.995 138.834C104.681 138.814 104.54 138.969 104.477 139.255C104.38 139.726 104.279 140.196 104.172 140.667C104.046 141.234 103.32 141.185 103.252 141.122C103.185 141.059 103.252 140.759 103.286 140.579C103.79 138.223 104.196 136.322 104.705 133.965C104.807 133.49 104.981 132.976 105.407 132.971C105.843 132.971 105.93 133.272 106.041 133.771C106.569 136.104 107.092 138.208 107.615 140.54C107.653 140.725 107.779 141.016 107.692 141.122L107.697 141.127ZM105.542 135.561C105.504 135.425 105.315 135.43 105.281 135.561C105.155 136.016 104.986 136.71 104.913 137.078C104.811 137.602 104.874 137.67 105.436 137.67C105.494 137.67 105.552 137.67 105.61 137.67C106.002 137.65 106.056 137.597 105.983 137.229C105.891 136.782 105.688 136.036 105.547 135.561H105.542Z" fill="#535660"/>
    <path d="M173.997 138.965C174.04 138.334 173.754 137.883 173.144 137.626C172.898 137.52 172.66 137.389 172.418 137.263C171.76 136.909 171.382 136.361 171.314 135.609C171.247 134.862 171.314 134.159 171.74 133.5C172.234 132.738 173.711 132.957 174.176 133.369C174.64 133.781 174.718 134.208 174.776 134.727C174.8 134.954 174.82 135.158 174.534 135.226C174.248 135.294 174.021 135.207 173.905 134.954C173.842 134.814 173.813 134.659 173.75 134.518C173.595 134.169 173.241 133.931 172.941 133.96C172.612 133.99 172.302 134.319 172.229 134.707C172.099 135.425 172.341 135.9 172.999 136.21C173.033 136.225 173.067 136.249 173.106 136.259C175.076 136.909 175.154 139.425 174.694 140.191C174.234 140.957 173.9 141.278 173.159 141.326C172.491 141.37 172.055 140.962 171.605 140.516C171.155 140.07 171.159 139.028 171.159 139.28C171.159 139.886 171.121 138.868 171.387 138.795C171.673 138.722 171.91 138.809 172.012 139.047C172.074 139.188 172.099 139.343 172.157 139.483C172.365 140.012 172.757 140.283 173.203 140.216C173.667 140.148 173.972 139.736 173.992 139.154C173.992 139.095 173.992 139.037 173.992 138.95L173.997 138.965Z" fill="#535660"/>
    <path d="M33.5685 138.969C33.5637 138.383 33.3507 137.922 32.7842 137.665C32.5712 137.568 32.3727 137.447 32.1645 137.355C31.2301 136.952 30.8428 136.196 30.8331 135.236C30.8282 134.62 30.9202 134.009 31.3124 133.48C31.9079 132.68 33.2248 132.661 33.8154 133.471C34.0963 133.849 34.2657 134.271 34.3286 134.746C34.3577 134.969 34.3577 135.148 34.1253 135.207C33.9026 135.265 33.646 135.289 33.5007 135.042C33.4136 134.896 33.3846 134.717 33.3168 134.552C33.1715 134.203 32.9101 133.985 32.5276 133.96C32.2081 133.941 31.8885 134.261 31.7772 134.664C31.6077 135.26 31.8546 135.847 32.3969 136.138C32.5663 136.23 32.7455 136.298 32.9246 136.375C34.2173 136.928 34.6095 137.98 34.4545 139.309C34.4061 139.736 34.2609 140.191 34.0333 140.55C33.3507 141.612 31.8643 141.617 31.1768 140.56C30.9347 140.186 30.6975 139.881 30.6975 139.275C30.6975 139.076 30.683 138.853 30.9638 138.8C31.2688 138.737 31.4818 138.829 31.5835 139.076C31.6416 139.217 31.6658 139.372 31.7239 139.517C31.9321 140.031 32.3388 140.303 32.7842 140.225C33.2199 140.148 33.5346 139.74 33.5637 139.202C33.5637 139.125 33.5637 139.047 33.5637 138.969H33.5685Z" fill="#535660"/>
    <path d="M47.6331 137.069C47.6331 135.91 47.6331 134.746 47.6331 133.587C47.6331 133.025 47.7784 132.981 48.3206 132.976C49.0565 132.971 49.7876 132.966 50.5235 132.976C51.0367 132.981 51.332 133.505 51.0416 133.931C50.9641 134.048 50.7511 134.116 50.5961 134.125C50.0926 134.15 49.9764 134.125 49.4729 134.14C49.0323 134.15 48.5966 134.213 48.5869 134.654C48.5772 135.022 48.5821 135.211 48.5869 135.58C48.5966 136.094 48.8484 136.332 49.3422 136.341C49.7682 136.351 49.9958 136.327 50.417 136.351C50.5913 136.361 50.8769 136.433 50.906 136.535C50.9786 136.778 50.9689 137.064 50.906 137.316C50.8818 137.408 50.6252 137.49 50.4654 137.495C50.0006 137.52 49.8021 137.495 49.3373 137.51C48.9258 137.52 48.5918 137.728 48.5821 138.121C48.5675 138.664 48.5675 138.838 48.5821 139.382C48.5918 139.74 48.9936 140.046 49.3567 140.056C49.899 140.07 50.1168 140.056 50.6542 140.065C51.0851 140.07 51.1965 140.162 51.2062 140.482C51.2255 140.991 51.0609 141.214 50.6252 141.219C49.8312 141.229 49.042 141.229 48.248 141.219C47.7881 141.214 47.6234 141.142 47.6186 140.662C47.6138 139.464 47.6186 138.261 47.6186 137.064L47.6331 137.069Z" fill="#535660"/>
    <path d="M72.3781 137.122C72.3781 135.982 72.3781 134.838 72.3781 133.699C72.3781 133.107 72.5039 132.976 73.0946 132.976C73.8305 132.971 74.5616 132.966 75.2975 132.976C75.7574 132.981 75.83 133.068 75.8397 133.524C75.8494 134.028 75.7719 134.125 75.2975 134.135C74.8133 134.145 74.6487 134.135 74.1646 134.14C73.7143 134.15 73.3367 134.213 73.327 134.634C73.3173 135.042 73.3173 135.449 73.327 135.852C73.3367 136.244 73.7724 136.327 74.1646 136.341C74.6294 136.356 74.731 136.341 75.191 136.351C75.6461 136.361 75.7138 136.448 75.7187 136.909C75.7187 137.408 75.6509 137.495 75.1668 137.505C74.702 137.515 74.5422 137.495 74.0774 137.515C73.7046 137.529 73.3367 137.597 73.327 137.961C73.3125 138.504 73.3125 138.819 73.327 139.362C73.3367 139.75 73.7627 140.051 74.1646 140.06C74.6874 140.075 74.8569 140.06 75.3798 140.065C75.8494 140.07 75.9559 140.162 75.9511 140.521C75.9511 141.016 75.801 141.214 75.3943 141.224C74.5809 141.234 73.7724 141.239 72.959 141.224C72.5427 141.219 72.3829 141.224 72.3829 140.778C72.378 139.561 72.3829 138.339 72.3829 137.122H72.3781Z" fill="#535660"/>
    <path d="M99.2872 137.093C99.2872 135.934 99.2872 134.77 99.2872 133.611C99.2872 133.015 99.6939 132.981 100.275 132.976C101.011 132.971 101.495 132.966 102.226 132.976C102.691 132.981 102.763 133.068 102.768 133.519C102.778 134.023 102.7 134.12 102.231 134.13C101.766 134.14 101.606 134.13 101.141 134.13C100.604 134.14 100.26 134.188 100.255 134.741C100.255 135.11 100.246 135.478 100.255 135.842C100.265 136.239 100.648 136.332 101.141 136.332C101.606 136.346 101.66 136.332 102.119 136.341C102.575 136.351 102.647 136.433 102.652 136.899C102.657 137.398 102.584 137.49 102.1 137.5C101.635 137.51 101.393 137.49 100.928 137.51C100.556 137.524 100.265 137.592 100.255 137.956C100.241 138.499 100.241 139.037 100.255 139.58C100.265 139.968 100.517 140.046 100.919 140.06C101.422 140.075 101.747 140.06 102.25 140.065C102.778 140.07 102.884 140.153 102.884 140.516C102.884 141.03 102.73 141.214 102.27 141.219C101.495 141.229 100.725 141.229 99.9505 141.219C99.4615 141.214 99.2823 140.831 99.2823 140.308C99.2823 139.129 99.2823 138.266 99.2823 137.088L99.2872 137.093Z" fill="#535660"/>
    <path d="M84.2737 134.014C84.6222 133.393 85.0773 132.923 85.8375 132.884C86.462 132.85 86.9607 133.073 87.3286 133.592C87.6337 134.028 87.8176 134.508 87.9096 135.027C87.9435 135.231 87.9484 135.42 87.7063 135.502C87.4594 135.59 87.1689 135.493 87.0575 135.274C87.0043 135.173 86.9849 135.051 86.9365 134.95C86.8687 134.79 86.8058 134.625 86.7089 134.484C86.2974 133.863 85.5615 133.859 85.1354 134.474C84.7142 135.085 84.569 135.944 84.5545 136.656C84.5399 137.364 84.5932 137.932 84.7045 138.635C84.7626 139.023 84.9515 139.411 85.1645 139.745C85.5518 140.346 86.3022 140.322 86.6944 139.721C86.83 139.512 86.9026 139.265 87.0043 139.037C87.135 138.751 87.319 138.426 87.7111 138.751C87.8128 138.805 87.9096 139.003 87.8903 139.115C87.7934 139.711 87.5852 140.279 87.1786 140.739C86.4523 141.559 85.2662 141.515 84.5496 140.676C84.1865 140.25 83.9735 139.755 83.8621 139.226C83.315 136.584 83.7169 134.998 84.264 134.019L84.2737 134.014Z" fill="#535660"/>
    <path d="M108.002 137.122C108.05 136.036 108.123 134.959 108.68 133.985C109.033 133.364 109.503 132.898 110.297 132.884C110.912 132.874 111.473 133.209 111.807 133.728C112.059 134.12 112.214 134.552 112.296 135.013C112.335 135.236 112.345 135.444 112.059 135.517C111.788 135.585 111.541 135.483 111.435 135.245C111.386 135.139 111.367 135.022 111.318 134.916C111.115 134.489 110.975 133.999 110.2 134.048C109.992 134.062 109.793 134.154 109.653 134.305C109.571 134.392 109.493 134.494 109.445 134.6C108.718 136.259 108.714 137.922 109.445 139.585C109.483 139.673 109.542 139.755 109.604 139.828C110.006 140.303 110.684 140.293 111.047 139.789C111.192 139.59 111.275 139.343 111.372 139.115C111.522 138.761 111.633 138.688 111.977 138.722C112.214 138.746 112.345 138.858 112.296 139.1C112.156 139.813 111.914 140.482 111.338 140.972C110.65 141.559 109.58 141.418 108.951 140.696C108.583 140.274 108.394 139.769 108.254 139.246C108.162 138.911 108.099 138.567 108.055 138.223C108.012 137.859 108.016 137.49 107.997 137.122H108.002Z" fill="#535660"/>
    <path d="M124.056 137.233C124.076 138.024 124.158 138.257 124.289 138.819C124.361 139.134 124.516 139.445 124.691 139.716C124.942 140.104 125.456 140.279 125.872 140.07C126.288 139.862 126.385 139.416 126.564 139.032C126.695 138.751 127.014 138.615 127.276 138.756C127.363 138.805 127.455 138.974 127.441 139.076C127.334 139.842 127.053 140.54 126.424 141.03C125.736 141.564 124.686 141.379 124.09 140.662C123.601 140.075 123.388 139.367 123.282 138.64C123.103 137.374 123.083 136.099 123.475 134.862C123.592 134.503 123.751 134.145 123.955 133.82C124.453 133.02 125.47 132.646 126.298 133.092C127.048 133.495 127.184 134.29 127.431 135.003C127.503 135.211 127.523 135.43 127.237 135.517C126.956 135.604 126.705 135.493 126.584 135.216C126.535 135.11 126.516 134.993 126.467 134.891C126.308 134.552 126.158 134.188 125.688 134.091C125.262 134.004 124.836 134.237 124.613 134.61C124.468 134.853 124.347 135.124 124.284 135.391C124.153 135.948 124.037 136.448 124.056 137.238V137.233Z" fill="#535660"/>
    <path d="M71.8165 133.063C71.9279 133.165 71.7875 133.509 71.7391 133.708C71.221 136.007 70.6933 138.3 70.1753 140.599C70.0542 141.137 69.9768 141.219 69.5798 141.229C69.1537 141.239 69.0375 141.137 68.9165 140.599C68.6308 139.299 68.3597 137.995 68.0741 136.69C67.8175 135.522 67.2607 133.539 67.2994 133.204C67.3381 132.869 68.1854 132.913 68.3064 133.505C68.6599 135.187 69.0133 136.87 69.3667 138.548C69.3958 138.688 69.7056 139.013 69.7831 138.412C70.1511 136.792 70.4996 135.168 70.8579 133.548C71.0032 132.763 71.6955 132.961 71.8069 133.063H71.8165Z" fill="#535660"/>
    <path d="M138.813 137.039C138.813 135.9 138.813 134.756 138.813 133.616C138.813 133.034 138.866 132.981 139.438 132.976C140.135 132.971 140.827 132.971 141.524 132.976C142.072 132.981 142.139 133.054 142.139 133.568C142.139 134.062 142.062 134.13 141.495 134.135C141.069 134.135 140.643 134.13 140.222 134.135C139.752 134.145 139.714 134.183 139.704 134.625C139.709 135.493 139.694 135.415 139.704 135.881C139.714 136.322 140.009 136.496 140.474 136.506C140.881 136.511 141.031 136.506 141.437 136.506C141.941 136.511 142.023 136.598 142.023 137.069C142.023 137.529 141.941 137.607 141.418 137.612C141.011 137.617 140.769 137.607 140.363 137.612C139.912 137.626 139.719 138.043 139.714 138.499C139.714 139.469 139.709 139.823 139.704 140.676C139.704 141.054 139.602 141.176 139.322 141.205C138.983 141.239 138.823 141.079 138.818 140.676C138.813 139.706 138.818 138.741 138.818 137.772C138.818 137.52 138.818 137.267 138.818 137.015L138.813 137.039Z" fill="#535660"/>
    <path d="M134.659 140.143C135.105 140.153 135.284 140.133 135.724 140.153C136.092 140.167 136.247 140.172 136.257 140.521C136.271 140.987 136.16 141.171 135.831 141.219C135.773 141.229 135.715 141.224 135.657 141.224C134.921 141.224 134.543 141.229 133.807 141.224C133.333 141.219 132.892 140.657 132.892 140.211C132.887 137.811 132.887 135.89 132.892 133.49C132.892 133.097 133.023 132.971 133.352 132.981C133.676 132.991 133.778 133.102 133.778 133.524C133.778 135.439 133.778 137.054 133.778 138.969C133.681 139.886 134.451 140.138 134.654 140.143H134.659Z" fill="#535660"/>
    <path d="M58.8074 137.03C58.8074 135.852 58.8074 134.673 58.8074 133.49C58.8074 133.083 58.9671 132.942 59.3157 132.976C59.5384 133 59.6788 133.529 59.6885 133.708C59.6982 133.888 59.6885 134.63 59.6885 134.746C59.6885 137.025 59.6885 138.247 59.6885 140.531C59.6885 140.647 59.6982 140.764 59.6837 140.88C59.6498 141.137 59.4755 141.229 59.2334 141.224C58.9913 141.219 58.8219 141.122 58.8025 140.861C58.7928 140.725 58.8025 140.589 58.8025 140.453C58.8025 139.314 58.8025 138.174 58.8025 137.03H58.8074Z" fill="#535660"/>
    <path d="M82.8019 137.088C82.8019 138.286 82.8019 139.483 82.8019 140.686C82.8019 141.088 82.6809 141.219 82.371 141.229C82.0854 141.234 81.945 141.118 81.9159 140.831C81.9062 140.715 81.9159 140.599 81.9159 140.482C81.9159 138.242 81.9159 135.997 81.9159 133.757C81.9159 133.737 81.9159 133.718 81.9159 133.699C81.9159 133.112 82.0176 132.898 82.3468 132.986C82.676 133.073 82.8019 133.107 82.8019 133.674C82.8019 134.276 82.8019 134.872 82.8019 135.473C82.8019 136.016 82.8019 136.555 82.8019 137.098V137.088Z" fill="#535660"/>
    <path d="M136.838 137.093C136.838 135.895 136.838 134.697 136.838 133.495C136.838 133.088 136.993 132.942 137.346 132.976C137.569 132.995 137.709 133.102 137.719 133.335C137.724 133.451 137.724 133.568 137.724 133.684C137.724 135.963 137.724 138.247 137.724 140.526C137.724 140.642 137.734 140.759 137.719 140.875C137.685 141.132 137.516 141.229 137.274 141.224C137.036 141.224 136.862 141.127 136.838 140.861C136.828 140.725 136.838 140.589 136.838 140.453C136.838 139.333 136.838 138.213 136.838 137.088V137.093Z" fill="#535660"/>
    <path d="M158.901 137.088C158.901 138.664 158.901 139.488 158.901 140.686C158.901 140.88 158.925 141.079 158.697 141.181C158.368 141.331 158.082 141.156 158.053 140.788C158.044 140.671 158.053 140.555 158.053 140.439C158.053 138.213 158.053 135.987 158.053 133.762C158.053 133.606 158.053 133.451 158.058 133.296C158.073 133.049 158.233 132.976 158.455 132.971C158.692 132.966 158.881 133.296 158.901 133.577C158.91 133.713 158.905 134.339 158.905 134.474C158.905 135.594 158.905 136.196 158.905 137.083L158.901 137.088Z" fill="#535660"/>
    <path d="M35.3115 137.03C35.3115 135.851 35.3115 134.979 35.3115 133.795C35.3115 133.378 35.4616 132.937 35.815 132.976C36.0135 133 36.1539 133.519 36.1539 133.892C36.1539 133.989 36.1588 135.26 36.1588 135.357C36.1588 137.699 36.1588 138.276 36.1588 140.618C36.1588 141.084 36.0862 141.19 35.7957 141.219C35.4858 141.253 35.3212 141.122 35.3115 140.802C35.297 140.356 35.3115 139.91 35.3115 139.469C35.3115 138.654 35.3115 137.844 35.3115 137.03Z" fill="#535660"/>
    <path d="M120.13 140.492C120.086 140.831 120.043 141.059 119.96 141.471C119.936 141.607 119.888 141.796 119.806 141.845C119.646 141.942 119.442 142.034 119.283 141.985C119.07 141.859 119.258 141.598 119.195 141.331C119.133 141.05 118.968 140.865 119.036 140.376C119.07 140.109 119.292 139.794 119.559 139.755C119.936 139.697 120.106 139.692 120.13 140.492Z" fill="#535660"/>
  </g>
  <defs/>
</svg>